<svg width="24" height="24" viewBox="0 0 24 24" fill="none" xmlns="http://www.w3.org/2000/svg">
  <path d="M12 15.5C13.933 15.5 15.5 13.933 15.5 12C15.5 10.067 13.933 8.5 12 8.5C10.067 8.5 8.5 10.067 8.5 12C8.5 13.933 10.067 15.5 12 15.5Z" stroke="currentColor" stroke-width="1.5" stroke-linecap="round" stroke-linejoin="round"/>
  <path d="M4.5 12.75V11.25L6.25 10.5C6.45507 9.79107 6.77428 9.12188 7.19381 8.52028L6.5 6.5L7.75 5.25L9.77028 5.94381C10.3719 5.52428 11.0411 5.20507 11.75 5L12.5 3.25H14L14.75 5C15.4589 5.20507 16.1281 5.52428 16.7297 5.94381L18.75 5.25L20 6.5L19.3062 8.52028C19.7257 9.12188 20.0449 9.79107 20.25 10.5L22 11.25V12.75L20.25 13.5C20.0449 14.2089 19.7257 14.8781 19.3062 15.4797L20 17.5L18.75 18.75L16.7297 18.0562C16.1281 18.4757 15.4589 18.7949 14.75 19L14 20.75H12.5L11.75 19C11.0411 18.7949 10.3719 18.4757 9.77028 18.0562L7.75 18.75L6.5 17.5L7.19381 15.4797C6.77428 14.8781 6.45507 14.2089 6.25 13.5L4.5 12.75Z" stroke="currentColor" stroke-width="1.5" stroke-linecap="round" stroke-linejoin="round"/>
</svg>
